<svg xmlns="http://www.w3.org/2000/svg" viewBox="0 0 288 512"><!--!Font Awesome Free 6.5.2 by @fontawesome - https://fontawesome.com License - https://fontawesome.com/license/free Copyright 2024 Fonticons, Inc.--><path d="M216 464h-40V346.8c68.5-15.9 118.1-79.9 111.4-154.2l-16-178.1C270.7 6.3 263.9 0 255.7 0H32.3c-8.2 0-15 6.3-15.7 14.6L.6 192.7C-6.1 266.9 43.5 330.9 112 346.8V464H72c-22.1 0-40 17.9-40 40 0 4.4 3.6 8 8 8h208c4.4 0 8-3.6 8-8 0-22.1-17.9-40-40-40zM61.8 48h164.5l7.2 80H54.6l7.2-80z"/></svg>